<svg xmlns="http://www.w3.org/2000/svg" viewBox="0 0 128 128"><defs><linearGradient id="b" x1="0" x2="1"><stop stop-color="#0046b8"/><stop offset="1" stop-color="#08295a"/></linearGradient><linearGradient id="t" x1="0" x2="1"><stop stop-color="#00796b"/><stop offset="1" stop-color="#11a386"/></linearGradient></defs><rect width="128" height="128" rx="28" fill="#fff"/><path d="M16 76c22-25 40-27 58-19 9 4 18 4 27 2 8-1 11 10 4 14-15 9-30 5-45 8 18 3 29 14 45 11 9-2 11 11 3 15-35 19-62 6-88-5-9-4-15-5-20-5-4 0-5-6-2-9z" fill="url(#b)"/><path d="M30 51c18-2 30-16 47-27 21-14 38-15 60-9-19 25-38 35-70 31-16-2-30 5-39 16-7 9-16-8 2-11z" fill="url(#t)" transform="translate(0 13)"/></svg>