<svg xmlns="http://www.w3.org/2000/svg" width="1200" height="630" viewBox="0 0 1200 630"><defs><linearGradient id="bg" x1="0" x2="1" y1="0" y2="1"><stop stop-color="#ffffff"/><stop offset="1" stop-color="#eefaf8"/></linearGradient><linearGradient id="b" x1="0" x2="1"><stop stop-color="#0046b8"/><stop offset="1" stop-color="#08295a"/></linearGradient><linearGradient id="t" x1="0" x2="1"><stop stop-color="#00796b"/><stop offset="1" stop-color="#11a386"/></linearGradient></defs><rect width="1200" height="630" fill="url(#bg)"/><path d="M0 482c150 20 235 82 391 83 171 2 247-79 399-69 166 10 240 65 410 37v97H0z" fill="#0c9d88" opacity=".24"/><path d="M0 505c175 14 264 76 430 74 157-1 263-73 405-66 150 7 221 61 365 42v75H0z" fill="#0046b8" opacity=".34"/><g transform="translate(110 120)"><path d="M0 154c60-66 98-76 147-55 26 11 58 10 86 5 20-3 27 24 9 32-31 14-57 8-88 16 32 1 61 16 89 38 14 11 38-2 61-14 30-15 46 15 18 33-94 62-186 41-262 10-25-10-45-14-60-14-12 0-16-17 0-51z" fill="url(#b)"/><path d="M325 116c42-5 68-39 106-64 64-41 121-46 192-33 47 9 89 15 139 14 15 0 21 12 11 25-51 66-106 87-184 80-38-3-68 2-96 19-34 22-47 54-81 59-18 3-29-19-15-33 20-18 45-36 58-65-26 9-37 33-59 42-17 7-31-11-19-25 17-18 39-21 52-39-27 9-53 39-82 41-15 1-24-19-22-21z" fill="url(#t)"/></g><text x="420" y="290" font-family="Inter, Arial, sans-serif" font-weight="900" font-size="86" fill="#092653">Zenventora<tspan fill="#0067d8">.</tspan><tspan fill="#0c9d88">in</tspan></text><text x="428" y="358" font-family="Inter, Arial, sans-serif" font-size="34" fill="#47627e">Product Growth • Sales Enablement • Partner Outreach</text><text x="428" y="420" font-family="Inter, Arial, sans-serif" font-size="27" fill="#0f3b68">Helping product companies reach the right business customers.</text></svg>
