<svg xmlns="http://www.w3.org/2000/svg" viewBox="0 0 1120 320" role="img" aria-labelledby="title desc"><title id="title">Zenventora.in</title><desc id="desc">Zenventora logo with helping hands and wordmark</desc><defs><linearGradient id="blue" x1="0" x2="1"><stop stop-color="#0046b8"/><stop offset="1" stop-color="#08295a"/></linearGradient><linearGradient id="teal" x1="0" x2="1"><stop stop-color="#00796b"/><stop offset="1" stop-color="#11a386"/></linearGradient><filter id="s" x="-10%" y="-20%" width="120%" height="140%"><feDropShadow dx="0" dy="10" stdDeviation="12" flood-color="#0b2440" flood-opacity=".16"/></filter></defs><rect width="1120" height="320" fill="white"/><g filter="url(#s)" transform="translate(72 72)"><path d="M7 132c56-62 92-72 138-52 24 10 55 9 81 5 18-3 25 22 8 30-29 13-53 7-82 15 30 1 57 15 84 36 12 10 35-2 57-13 28-14 43 13 17 30-88 58-174 38-246 9-23-9-42-13-57-13-11 0-15-16-7-27z" fill="url(#blue)"/><path d="M258 157c31-18 51-25 67-33 15-7 24 15 11 24-14 10-34 18-61 27-16 5-27-9-17-18z" fill="#0b55bd"/><path d="M279 172c20-9 38-18 55-27 14-8 26 13 12 24-20 15-38 23-60 28-17 4-22-18-7-25z" fill="#0b55bd"/></g><g filter="url(#s)" transform="translate(300 40)"><path d="M0 139c38-4 62-35 97-58 59-38 112-43 178-31 44 8 83 14 129 13 14 0 20 11 11 23-47 61-98 80-170 74-35-3-63 1-89 17-31 20-44 50-75 54-17 2-27-18-14-30 18-17 42-34 54-60-24 8-34 31-54 39-16 7-29-10-18-23 15-17 36-19 48-36-25 8-49 36-76 38-14 1-22-18-21-20z" fill="url(#teal)"/></g><text x="548" y="183" font-family="Inter, Arial, sans-serif" font-weight="800" font-size="92" fill="#092653">Zenventora<tspan fill="#0067d8">.</tspan><tspan fill="#0c9d88">in</tspan></text></svg>