<svg width="40" height="40" viewBox="0 0 35 36" fill="none" xmlns="http://www.w3.org/2000/svg"><path d="M19.4079 4.76224H4.69455C2.67096 4.76224 1.03052 6.40268 1.03052 8.42627V26.0022C1.03052 28.0258 2.67096 29.6662 4.69455 29.6662H9.7326L14.174 33.9643C14.6767 34.4509 15.4648 34.4819 16.0043 34.0365L21.2972 29.6662H25.4192C27.4428 29.6662 29.0833 28.0258 29.0833 26.0022V15.4681" stroke="black" stroke-width="2.06102"/><path d="M10.2493 12.3048C10.749 12.3048 11.2223 12.6131 11.5774 13.1534C11.9314 13.6923 12.1555 14.446 12.1555 15.2862C12.1555 16.1267 11.9315 16.881 11.5774 17.42C11.2223 17.9603 10.749 18.2686 10.2493 18.2686C9.74964 18.2685 9.27711 17.9602 8.92212 17.42C8.56793 16.881 8.34399 16.1268 8.34399 15.2862C8.34405 14.4459 8.56804 13.6923 8.92212 13.1534C9.27711 12.6132 9.74961 12.3049 10.2493 12.3048Z" fill="black" stroke="black" stroke-width="0.313898"/><path d="M20.8767 12.3048C21.4043 12.3048 21.8994 12.6161 22.2693 13.1554C22.6386 13.694 22.8718 14.4471 22.8718 15.2862C22.8718 16.1254 22.6386 16.8784 22.2693 17.4171C21.8994 17.9565 21.4043 18.2686 20.8767 18.2686C20.3491 18.2686 19.854 17.9565 19.4841 17.4171C19.1148 16.8784 18.8816 16.1253 18.8816 15.2862C18.8816 14.4471 19.1148 13.694 19.4841 13.1554C19.854 12.6161 20.3492 12.3048 20.8767 12.3048Z" fill="black" stroke="black" stroke-width="0.313898"/><path d="M8.30127 22.2236C8.30127 22.2236 11.0367 24.6451 15.6554 24.6451C20.6778 24.6451 22.8751 22.2236 22.8751 22.2236" stroke="black" stroke-width="2.15244" stroke-linecap="round"/><path d="M20.6675 7.21964C25.3208 7.21964 27.349 5.27509 27.349 0.582947C27.349 5.27509 29.3632 7.21964 34.0306 7.21964C29.3632 7.21964 27.349 9.22022 27.349 13.8563C27.349 9.22022 25.3208 7.21964 20.6675 7.21964Z" fill="black" stroke="black" stroke-width="1.16591" stroke-linejoin="round"/></svg>